<?xml version="1.0" encoding="UTF-8"?>
<svg version="1.1" xmlns="http://www.w3.org/2000/svg" width="1024" height="1024">
<path d="M0 0 C7.9666726 -0.00478788 15.93317893 -0.02256641 23.89980149 -0.0510757 C30.2412545 -0.07293329 36.58266106 -0.0827904 42.92415118 -0.08411622 C46.63761574 -0.08513813 50.35091688 -0.09046971 54.06433916 -0.10893583 C118.77143994 -0.41280858 118.77143994 -0.41280858 136.0723424 11.2388196 C137.23188545 14.34492587 137.30180765 15.71444301 135.9629674 18.77397585 C135.42156115 19.60799929 134.8801549 20.44202272 134.3223424 21.3013196 C133.79124865 22.13792116 133.2601549 22.97452272 132.7129674 23.83647585 C132.17156115 24.62924929 131.6301549 25.42202272 131.0723424 26.2388196 C130.59281115 26.98003054 130.1132799 27.72124147 129.6192174 28.48491335 C127.75615167 30.59732878 126.86676811 31.03296872 124.0723424 31.2388196 C121.50614159 30.6045716 119.09460441 29.72439114 116.60749865 28.8325696 C113.73935795 28.16083249 111.88912309 28.47289712 109.0723424 29.2388196 C109.0723424 28.2488196 109.0723424 27.2588196 109.0723424 26.2388196 C84.993472 25.12345287 60.93175333 25.07452875 36.83187532 25.07156253 C33.53646988 25.07084302 30.24106838 25.0686923 26.94566393 25.06606531 C15.39950856 25.05687758 3.85336458 25.05272299 -7.69279432 25.05351686 C-18.38175915 25.0541192 -29.07067379 25.04351986 -39.75962591 25.0277732 C-49.01226932 25.01463762 -58.2648964 25.00933532 -67.51754904 25.00997227 C-73.01136641 25.01022505 -78.50513877 25.00749609 -83.99894667 24.99679422 C-89.16046284 24.98700812 -94.3218918 24.98710485 -99.48341131 24.99431086 C-101.3580833 24.99534304 -103.23276105 24.99307701 -105.10742331 24.9869504 C-114.83045078 24.95727146 -124.44837068 25.2306835 -134.13444471 26.12509584 C-134.97934997 26.20210342 -135.82425522 26.279111 -136.69476366 26.35845214 C-160.97851221 28.82764839 -182.30284332 40.14779428 -198.0917201 58.8013196 C-213.20572871 78.86757783 -219.75846759 101.56298193 -220.49919081 126.35893679 C-220.53982051 127.65919172 -220.58045021 128.95944666 -220.62231112 130.29910326 C-221.10488712 146.77976644 -221.09245083 163.26604804 -221.09491467 179.75236273 C-221.09563717 182.48280261 -221.09779315 185.21323779 -221.10041189 187.94367647 C-221.10958398 197.53099294 -221.1137563 207.11829576 -221.11296034 216.70561647 C-221.11235865 225.54781807 -221.12294964 234.38995885 -221.138704 243.23214507 C-221.15188796 250.91377501 -221.15713988 258.59538529 -221.15650493 266.27702641 C-221.15625353 270.82586936 -221.15890298 275.37465776 -221.16968298 279.92348909 C-221.23029167 303.98309956 -221.23029167 303.98309956 -220.05778456 328.00737429 C-219.98282601 329.01258749 -219.90786747 330.01780069 -219.83063745 331.0534749 C-217.96060018 352.52168447 -209.90011023 373.74674437 -195.9276576 390.2388196 C-194.89125135 391.4763196 -194.89125135 391.4763196 -193.8339076 392.7388196 C-184.0521531 404.03605719 -172.73051245 412.20237928 -158.8026576 417.5513196 C-158.14571913 417.80607058 -157.48878065 418.06082155 -156.81193495 418.32329226 C-152.18160458 420.02019324 -147.83728858 420.77409952 -142.9276576 421.2388196 C-142.9276576 421.5688196 -142.9276576 421.8988196 -142.9276576 422.2388196 C-141.73527479 422.40897585 -140.54289198 422.5791321 -139.31437635 422.7544446 C-137.74783 422.99833804 -136.181431 423.24317931 -134.6151576 423.4888196 C-133.82947401 423.59838991 -133.04379042 423.70796022 -132.23429823 423.82085085 C-126.56233515 424.73801935 -126.56233515 424.73801935 -123.9276576 426.8169446 C-122.44765453 430.40132705 -122.34644593 433.91547667 -122.2401576 437.7388196 C-122.20599745 438.59669069 -122.17183729 439.45456179 -122.13664198 440.33842897 C-121.82756271 449.30172781 -121.87088839 458.27373519 -121.96403456 467.24077272 C-122.0207479 474.63152841 -121.67569679 481.88532726 -120.9276576 489.2388196 C-116.51495984 488.49633364 -114.35086543 487.29650679 -110.9276576 484.3638196 C-109.96472792 483.5491321 -109.00179823 482.7344446 -108.00968885 481.8950696 C-106.9819469 481.01011517 -105.95460951 480.12469072 -104.9276576 479.2388196 C-102.82682858 477.4432166 -100.7214214 475.65304232 -98.6151576 473.8638196 C-98.07657118 473.40459108 -97.53798475 472.94536257 -96.98307753 472.47221804 C-92.98206736 469.07899356 -88.88580914 465.82795264 -84.7401576 462.6138196 C-79.72019707 458.71948471 -74.9565929 454.6449756 -70.27531385 450.34428835 C-67.17005774 447.5593748 -63.91526737 444.99355899 -60.6385951 442.41460085 C-57.45047707 439.85583753 -54.34664355 437.20800164 -51.2401576 434.5513196 C-35.38744263 421.02860215 -35.38744263 421.02860215 -25.9276576 421.2388196 C-25.9276576 421.5688196 -25.9276576 421.8988196 -25.9276576 422.2388196 C-20.3176576 422.2388196 -14.7076576 422.2388196 -8.9276576 422.2388196 C-8.9276576 421.9088196 -8.9276576 421.5788196 -8.9276576 421.2388196 C-7.2776576 421.2388196 -5.6276576 421.2388196 -3.9276576 421.2388196 C-3.9276576 421.5688196 -3.9276576 421.8988196 -3.9276576 422.2388196 C7.9523424 422.5688196 19.8323424 422.8988196 32.0723424 423.2388196 C32.0723424 422.5788196 32.0723424 421.9188196 32.0723424 421.2388196 C32.62831102 421.40147814 33.18427965 421.56413668 33.75709581 421.73172426 C36.28340666 422.28504781 38.53064421 422.35887439 41.11628771 422.35234499 C42.61739092 422.35223169 42.61739092 422.35223169 44.14881945 422.35211611 C45.22186327 422.34695482 46.29490709 422.34179354 47.4004674 422.33647585 C48.50460985 422.3350609 49.60875231 422.33364595 50.74635363 422.33218813 C54.27171081 422.32659218 57.79700441 422.31404039 61.3223424 422.3013196 C63.71296648 422.29630408 66.10359156 422.29174126 68.4942174 422.28764772 C74.35361408 422.27662407 80.21297369 422.25988993 86.0723424 422.2388196 C86.0723424 421.9088196 86.0723424 421.5788196 86.0723424 421.2388196 C88.56319344 421.16962929 90.72066865 421.14290858 93.1348424 421.8013196 C95.08633364 422.39479016 95.08633364 422.39479016 97.0723424 421.7388196 C99.41882333 421.15219936 100.79834817 421.50789288 103.0723424 422.2388196 C103.0723424 421.9088196 103.0723424 421.5788196 103.0723424 421.2388196 C104.48890033 421.2115781 105.90561284 421.19231493 107.3223424 421.1763196 C108.11124865 421.16471804 108.9001549 421.15311647 109.7129674 421.14116335 C112.0723424 421.2388196 112.0723424 421.2388196 113.9785924 421.78178835 C128.09260477 424.86264553 148.28806844 415.08948604 160.0723424 408.2388196 C163.86441783 405.72020233 167.49864312 403.05710277 171.0723424 400.2388196 C171.9282799 399.57753054 172.7842174 398.91624147 173.6660924 398.23491335 C177.25101121 395.26106024 180.10893183 391.81740244 183.0723424 388.2388196 C183.5673424 387.65487429 184.0623424 387.07092897 184.5723424 386.46928835 C200.84049635 366.17830285 204.44281883 341.85354424 204.18830919 316.64409304 C204.17626579 314.68489065 204.165231 312.72568184 204.15512133 310.76646852 C204.13196954 306.56939037 204.10301861 302.37240712 204.06984568 298.17539644 C204.0186892 291.53530703 203.98856015 284.89522404 203.96267748 278.25499392 C203.88673868 259.38059047 203.79731201 240.50639953 203.65412951 221.63237429 C203.57509635 211.19163591 203.52104544 200.75108355 203.4950636 190.31007457 C203.48023347 184.79206111 203.4523207 179.27479424 203.39336252 173.75706148 C203.33800982 168.57266028 203.31519286 163.38913578 203.31717539 158.20444918 C203.31206402 156.30490842 203.29495511 154.40535536 203.26482058 152.50604677 C203.01974243 136.36932644 203.01974243 136.36932644 207.39736986 131.29259157 C208.59760922 130.24559715 209.8227247 129.22635565 211.0723424 128.2388196 C212.27552813 126.94068378 213.46502376 125.62960303 214.6348424 124.3013196 C217.02339304 121.94504667 218.07852864 121.23683533 221.3848424 120.1763196 C224.0723424 120.2388196 224.0723424 120.2388196 226.0723424 122.2388196 C226.33405542 124.05795622 226.33405542 124.05795622 226.3508153 126.30875063 C226.36197972 127.16424816 226.37314415 128.01974569 226.38464689 128.90116739 C226.38788576 130.31728595 226.38788576 130.31728595 226.39119005 131.76201296 C226.40624574 133.25762034 226.40624574 133.25762034 226.42160559 134.78344202 C226.45277474 138.13184305 226.46961185 141.48016158 226.4864049 144.82866335 C226.50531564 147.2021388 226.52503142 149.57560795 226.54550219 151.94907045 C226.59796259 158.35976136 226.63747942 164.77047092 226.67384005 171.18127108 C226.70510533 176.49590209 226.74266841 181.81048164 226.77999449 187.12507296 C226.8928001 203.22716266 226.97852924 219.32933449 227.05423784 235.43163729 C227.07173921 239.11197702 227.09012157 242.79231126 227.10878038 246.47264528 C227.17804877 260.3054831 227.22687437 274.1382144 227.2531209 287.97119951 C227.25979336 290.84271871 227.26987881 293.71420739 227.28089952 296.58571291 C227.29754889 301.08940254 227.30363282 305.59298991 227.30166483 310.09670877 C227.30240677 311.71071624 227.30637133 313.32472679 227.31419611 314.93871546 C227.3801931 329.51689335 226.9306372 344.69017869 222.9473424 358.8013196 C222.73561388 359.57177614 222.52388536 360.34223269 222.30574083 361.1360364 C214.25348583 388.96501475 197.16534096 412.26330825 173.0723424 428.2388196 C172.33757677 428.74284304 171.60281115 429.24686647 170.8457799 429.76616335 C150.81260458 442.74297966 126.50167105 446.70705182 103.0657506 446.32304811 C101.63476167 446.30769562 100.20376084 446.29342145 98.77275133 446.28012514 C95.72487271 446.25040206 92.67713842 446.21490725 89.62937403 446.17519236 C84.79846002 446.11401026 79.96753589 446.0767993 75.13635302 446.0444684 C73.47284831 446.03306784 71.80934371 446.02165129 70.14583921 446.0102191 C69.31370386 446.00451741 68.4815685 445.99881572 67.62421691 445.99294126 C56.4020225 445.91427042 45.18033845 445.81643975 33.95881701 445.6697278 C26.35232509 445.57046935 18.74628171 445.50372196 11.13919371 445.47336382 C7.12750917 445.45600961 3.11749723 445.42236649 -0.89357519 445.34837961 C-4.66410879 445.2789677 -8.43260786 445.25247873 -12.20375395 445.25743723 C-14.22699971 445.24916562 -16.24991219 445.19615305 -18.27242994 445.1412549 C-28.35817898 445.21889531 -33.66308601 448.68195469 -40.9276576 455.2388196 C-42.18358912 456.28172728 -43.44180158 457.32191486 -44.70500135 458.3560071 C-45.76162528 459.2715537 -46.81506328 460.1907911 -47.8651576 461.1138196 C-49.04713332 462.13892359 -50.22943275 463.16365444 -51.4120326 464.18803835 C-51.99533339 464.69512331 -52.57863417 465.20220827 -53.17961073 465.72465944 C-60.75259485 472.28438675 -68.44035725 478.71101257 -76.2167201 485.0278821 C-78.13762299 486.59449742 -80.0480841 488.17395593 -81.9510951 489.7622571 C-82.93336073 490.57952272 -83.91562635 491.39678835 -84.9276576 492.2388196 C-85.8145326 492.9813196 -86.7014076 493.7238196 -87.6151576 494.4888196 C-89.9276576 496.2388196 -89.9276576 496.2388196 -92.9276576 497.2388196 C-92.9276576 497.8988196 -92.9276576 498.5588196 -92.9276576 499.2388196 C-94.89253395 500.93112926 -96.85467433 502.50140435 -98.9276576 504.0513196 C-99.52417128 504.50055788 -100.12068495 504.94979616 -100.73527479 505.41264772 C-102.45806266 506.6993695 -104.18996575 507.9723217 -105.9276576 509.2388196 C-106.69593885 509.79956179 -107.4642201 510.36030397 -108.2557826 510.93803835 C-113.56009518 514.52815235 -119.0229134 516.86499643 -125.50968885 515.8247571 C-131.87992471 514.08655181 -137.67972087 511.82430052 -141.1776576 505.9263196 C-146.39527541 493.67892478 -145.18017117 478.8257475 -145.0526576 465.8013196 C-145.04259633 463.99077774 -145.03347611 462.18023039 -145.02531385 460.36967897 C-145.00357583 455.99258702 -144.96922405 451.6157663 -144.9276576 447.2388196 C-146.07798475 446.90398561 -147.2283119 446.56915163 -148.41349745 446.22417116 C-149.94688533 445.77600424 -151.48024999 445.32775782 -153.0135951 444.8794446 C-153.76890516 444.65982058 -154.52421522 444.44019655 -155.30241346 444.21391726 C-175.23603412 438.37706021 -191.29173959 429.01434892 -205.9276576 414.2388196 C-206.62246229 413.59042116 -207.31726698 412.94202272 -208.03312635 412.27397585 C-212.74937286 407.80548713 -216.71959658 403.0701168 -220.4901576 397.8013196 C-220.93190321 397.18587282 -221.37364882 396.57042604 -221.82878065 395.93632936 C-224.9276576 391.50399253 -224.9276576 391.50399253 -224.9276576 389.2388196 C-225.5876576 388.9088196 -226.2476576 388.5788196 -226.9276576 388.2388196 C-237.48677372 370.19911634 -242.86487918 348.46368118 -243.54215956 327.7087903 C-243.57968745 326.66295684 -243.61721535 325.61712337 -243.65588045 324.53959799 C-244.19415146 307.29917352 -244.0926655 290.04093966 -244.09491467 272.79414582 C-244.09563335 269.68906068 -244.09778262 266.58397975 -244.10041189 263.47889566 C-244.10960703 252.60174839 -244.11375344 241.72461322 -244.11296034 230.84746218 C-244.11235845 220.77544803 -244.12294718 210.70348724 -244.138704 200.63148659 C-244.15184158 191.91736373 -244.15714177 183.20325822 -244.15650493 174.48912555 C-244.15625213 169.31330124 -244.15898243 164.13752471 -244.16968298 158.96171045 C-244.17947192 154.09654879 -244.17937048 149.23147963 -244.17216635 144.36631441 C-244.17113436 142.59926703 -244.17339895 140.83221354 -244.17952681 139.06517649 C-244.30777444 99.46871846 -235.72896224 63.79707527 -207.6151576 34.4263196 C-181.87668074 9.86783021 -150.84918489 1.41696325 -115.94621229 0.93120241 C-114.08113649 0.90097113 -114.08113649 0.90097113 -112.1783824 0.87012911 C-108.78142888 0.81683207 -105.38447534 0.7676515 -101.98742342 0.72131681 C-99.82470233 0.69160346 -97.66200361 0.66056001 -95.49930525 0.62923861 C-63.66724158 0.17224947 -31.83507888 0.01875333 0 0 Z " fill="#050505" transform="translate(446.92765760421753,242.7611804008484)"/>
<path d="M0 0 C6.47939142 0.66116239 11.95636347 1.69512191 16.4140625 6.72265625 C17.16723993 7.82504329 17.90338516 8.93919886 18.625 10.0625 C19.48583197 11.33150812 20.34787135 12.59969781 21.2109375 13.8671875 C21.88721191 14.87604004 21.88721191 14.87604004 22.57714844 15.90527344 C25.05654254 19.55544527 27.65796947 23.11688149 30.25 26.6875 C30.79551514 27.44240723 31.34103027 28.19731445 31.90307617 28.97509766 C38.20834543 37.69446812 44.60444404 46.34677399 51 55 C58.42121495 65.04094886 65.81171806 75.10066404 73.10791016 85.23291016 C78.75410473 93.06450814 84.4872454 100.83114194 90.22509766 108.59570312 C92.01096782 111.0148571 93.79318282 113.43666019 95.57421875 115.859375 C101.01830482 123.26330218 106.47581349 130.65558345 112 138 C121.04601263 150.03066868 129.96613426 162.15165311 138.75 174.375 C143.17600727 180.5306582 147.71047559 186.57213365 152.36328125 192.55859375 C155.52298597 196.6522611 158.5689225 200.82875808 161.625 205 C166.67662855 211.89085068 171.80654367 218.71544498 177 225.5 C182.73492609 232.99405083 188.39713338 240.53500709 193.96142578 248.15673828 C196.77114985 252.00089622 199.61178505 255.81073029 202.5390625 259.56640625 C203.38162598 260.65634888 203.38162598 260.65634888 204.24121094 261.76831055 C205.29959259 263.13304086 206.36741693 264.49052116 207.44628906 265.83911133 C209.5626601 268.58057547 210.94068631 270.45460337 211.3203125 273.9453125 C211.21460938 274.62335938 211.10890625 275.30140625 211 276 C205.87528295 277.67536915 201.22231183 278.31541912 195.82080078 278.36645508 C195.03444244 278.38131958 194.24808411 278.39618408 193.43789673 278.41149902 C190.85708661 278.45740506 188.27634947 278.48920441 185.6953125 278.51953125 C183.88841193 278.54589655 182.081517 278.5726515 180.27462769 278.59977722 C176.4938487 278.65408281 172.71306342 278.70088937 168.93212891 278.74291992 C164.10468992 278.79757631 159.27792484 278.87511265 154.45091438 278.95886707 C150.72080476 279.02030085 146.9906136 279.06732485 143.26025009 279.11032677 C141.4813229 279.1329471 139.70245056 279.16046563 137.92367935 279.19312477 C116.86414388 279.56513489 116.86414388 279.56513489 111.52677917 274.64077759 C110.22265625 273.08203125 110.22265625 273.08203125 108.0625 269.8125 C106.74324214 267.85106371 105.39788084 265.90620114 104 264 C103.34 264 102.68 264 102 264 C101.93167969 263.30390625 101.86335937 262.6078125 101.79296875 261.890625 C100.77180138 258.16814295 98.71387715 255.67907108 96.3125 252.75 C95.40003826 251.60469758 94.48988342 250.4575535 93.58203125 249.30859375 C93.13939941 248.74897949 92.69676758 248.18936523 92.24072266 247.61279297 C90.04248253 244.75534033 88.09444493 241.74391227 86.15625 238.70703125 C84.97861459 236.8526832 84.97861459 236.8526832 83 235 C82.0619498 233.64607853 81.14821365 232.27520274 80.25 230.89453125 C77.28602384 226.39922722 74.17617237 222.03436418 71 217.6875 C65.48371085 210.10340889 60.08421094 202.44399178 54.7578125 194.7253418 C51.6829514 190.29575536 48.49363977 186.10579965 45 182 C42 177.44827586 42 177.44827586 42 175 C40.05000871 175.19471111 40.05000871 175.19471111 38 176 C37.74089844 176.54011719 37.48179687 177.08023438 37.21484375 177.63671875 C35.46875478 181.03345132 32.94469229 183.71398203 30.4375 186.5625 C29.34144897 187.82335107 28.24640511 189.08507833 27.15234375 190.34765625 C26.34385986 191.27989014 26.34385986 191.27989014 25.51904297 192.23095703 C23.46864567 194.61880319 21.48066779 197.05414785 19.5 199.5 C15.5662143 204.34596789 11.51552241 209.08098528 7.44140625 213.80859375 C4.41041716 217.33317903 1.43007419 220.89048832 -1.5 224.5 C-5.89062283 229.90506276 -10.41912597 235.18323752 -14.9609375 240.4609375 C-17.82597305 243.79165501 -20.66635342 247.14257212 -23.5 250.5 C-25.33249805 252.66737417 -27.16610416 254.8338085 -29 257 C-29.51127441 257.60440918 -30.02254883 258.20881836 -30.54931641 258.83154297 C-32.13419266 260.70263807 -33.72290177 262.57041579 -35.3125 264.4375 C-36.03179687 265.28828125 -36.03179687 265.28828125 -36.765625 266.15625 C-37.70072905 267.25195363 -38.6512808 268.3346715 -39.6171875 269.40332031 C-41.03178055 270.96828483 -41.03178055 270.96828483 -42.1484375 272.72949219 C-44.56445878 275.94264902 -46.24494182 276.89210248 -50.28540039 277.46948242 C-54.33351256 277.59151677 -58.3302283 277.52418086 -62.375 277.375 C-63.79291235 277.34487301 -65.21088609 277.31750197 -66.62890625 277.29296875 C-70.08722213 277.22716243 -73.54321818 277.12379659 -77 277 C-79.0703125 273.3203125 -79.0703125 273.3203125 -78.4375 270.4375 C-76.66904993 267.43882379 -74.98015594 266.78809356 -72 265 C-69.49662474 262.4832377 -67.27458947 259.72286623 -65 257 C-63.06836591 254.72414246 -61.12829842 252.45554387 -59.1875 250.1875 C-58.67074707 249.58212402 -58.15399414 248.97674805 -57.62158203 248.35302734 C-54.416487 244.61058699 -51.14858094 240.93957866 -47.8125 237.3125 C-43.78606164 232.92644354 -40.01890278 228.38258372 -36.28125 223.75 C-33.13923588 219.96236654 -29.80084819 216.37005729 -26.46875 212.75 C-24.05621896 210.06262366 -21.7674379 207.31034556 -19.5 204.5 C-15.66164586 199.74260332 -11.60377641 195.24216082 -7.46484375 190.74609375 C-5.07292703 188.08124834 -2.80745116 185.35168175 -0.5625 182.5625 C2.67762343 178.54383101 6.04939969 174.71442998 9.5625 170.9375 C13.01618334 167.19555648 16.45135094 163.44258633 19.75 159.5625 C20.73226562 158.41974609 20.73226562 158.41974609 21.734375 157.25390625 C23.17515524 155.09905319 23.17515524 155.09905319 23.05859375 152.71875 C21.46882576 148.63580343 18.93863959 145.41991519 16.3125 141.9375 C15.12097109 140.32396781 13.93091868 138.70934446 12.7421875 137.09375 C12.1244043 136.25714844 11.50662109 135.42054688 10.87011719 134.55859375 C7.82804476 130.39659387 4.88270814 126.16833767 1.9375 121.9375 C0.76447857 120.2564018 -0.40869749 118.57541147 -1.58203125 116.89453125 C-2.15260254 116.07678223 -2.72317383 115.2590332 -3.31103516 114.41650391 C-7.84762119 107.92573656 -12.42273591 101.46211268 -17 95 C-17.48049805 94.32050293 -17.96099609 93.64100586 -18.45605469 92.94091797 C-19.84355504 90.9799112 -21.23379918 89.02088269 -22.625 87.0625 C-23.03911133 86.47678223 -23.45322266 85.89106445 -23.87988281 85.28759766 C-25.48477392 83.03439544 -27.03975805 80.96024195 -29 79 C-30.30920608 76.9858368 -31.54090917 74.93215064 -32.78125 72.875 C-33.9933611 70.86830276 -33.9933611 70.86830276 -36 69 C-37.04240278 67.38875138 -38.05951419 65.76107615 -39.0625 64.125 C-42.29662264 58.98766938 -45.81995741 54.17062276 -49.49609375 49.34375 C-52.33742729 45.58406295 -55.04379928 41.73255971 -57.75 37.875 C-62.71043109 30.80592275 -67.74038441 23.7903604 -72.81152344 16.80029297 C-73.33004883 16.08502441 -73.84857422 15.36975586 -74.3828125 14.6328125 C-74.84059082 14.00262207 -75.29836914 13.37243164 -75.77001953 12.72314453 C-79.02021176 8.16977876 -79.02021176 8.16977876 -78.6875 5.375 C-78 3 -78 3 -77 2 C-74.59651714 1.90503292 -72.22189018 1.87441138 -69.81811523 1.88647461 C-69.06694427 1.88632858 -68.31577332 1.88618256 -67.5418396 1.8860321 C-65.04739541 1.88673137 -62.55302497 1.89452436 -60.05859375 1.90234375 C-58.33366436 1.90420788 -56.60873443 1.90563181 -54.88380432 1.90663147 C-50.33487497 1.91045703 -45.78597733 1.92028762 -41.23706055 1.93133545 C-36.59879994 1.94154876 -31.96053423 1.94612892 -27.32226562 1.95117188 C-18.21482978 1.96190986 -9.10741752 1.97898673 0 2 C0 1.34 0 0.68 0 0 Z M-35 24 C-31.93504292 29.66416088 -28.36655912 34.73213186 -24.5 39.875 C-19.90119462 46.0517034 -15.35819188 52.25697103 -10.9375 58.5625 C-1.87809463 71.46756733 7.39857175 84.20965972 16.7668457 96.8918457 C22.35993359 104.47055348 27.87524393 112.10405539 33.37792969 119.74853516 C35.03339288 122.04634996 36.69196457 124.34188876 38.3515625 126.63671875 C43.65496977 133.9701976 48.94549673 141.31213472 54.19873047 148.68164062 C59.2098587 155.70564895 64.27069471 162.69378507 69.32666016 169.68554688 C72.05263139 173.45593019 74.77621534 177.22803694 77.5 181 C78.58332144 182.50000859 79.66665479 184.00000858 80.75 185.5 C100.25 212.5 100.25 212.5 101.87597656 214.75146484 C102.95591198 216.24668511 104.03598939 217.74180284 105.11621094 219.23681641 C107.8777244 223.05910435 110.63650813 226.88331583 113.390625 230.7109375 C113.95330078 231.49210938 114.51597656 232.27328125 115.09570312 233.078125 C116.1474338 234.53837916 117.1983126 235.99924753 118.24804688 237.4609375 C119.25456589 238.85763143 120.27807082 240.24221328 121.31665039 241.61523438 C123 244 123 244 124.77514648 247.18164062 C128.22538323 253.08808505 128.22538323 253.08808505 133.85760498 256.6161499 C139.08620271 257.48511583 144.3012089 257.09657495 149.5625 256.75 C151.15930362 256.68971268 152.75632698 256.63497614 154.35351562 256.5859375 C158.24116424 256.45458323 162.11813176 256.24820536 166 256 C166.33 255.34 166.66 254.68 167 254 C160.68229315 245.19088977 154.34416839 236.40215922 147.8125 227.75 C144.18348015 222.94093072 140.60928308 218.10251015 137.125 213.1875 C131.4611459 205.19842433 125.63594792 197.33014987 119.81445312 189.45556641 C116.87205315 185.47350788 113.9362956 181.48656062 111 177.5 C109.83336666 175.91664211 108.66669996 174.3333088 107.5 172.75 C105.16666667 169.58333333 102.83333333 166.41666667 100.5 163.25 C99.92241943 162.46616943 99.34483887 161.68233887 98.74975586 160.87475586 C97.58379194 159.29231815 96.41793896 157.70979869 95.25219727 156.12719727 C92.32568557 152.15448113 89.39722466 148.18323006 86.46484375 144.21484375 C80.22528928 135.76659743 74.0293578 127.28993416 67.89208984 118.76708984 C61.66337597 110.12750396 55.33045986 101.5651506 49 93 C42.12417089 83.6969615 35.26005565 74.38765364 28.5 65 C22.80094497 57.08614633 17.04633453 49.21517049 11.23046875 41.38671875 C9.22968663 38.68879185 7.27067837 35.9716855 5.36328125 33.20703125 C4.60402344 32.12808594 3.84476563 31.04914063 3.0625 29.9375 C2.43472656 29.01839844 1.80695313 28.09929687 1.16015625 27.15234375 C-2.79527355 23.2112193 -7.45688145 22.91717461 -12.8125 22.76953125 C-14.54172149 22.77347324 -16.27094782 22.78798359 -18 22.8125 C-19.29550781 22.8134668 -19.29550781 22.8134668 -20.6171875 22.81445312 C-25.50988115 22.8479138 -30.17614579 23.18073128 -35 24 Z " fill="#030304" transform="translate(389,324)"/>
<path d="M0 0 C5.15045756 3.44022885 9.10759977 8.13520362 13.08203125 12.828125 C15.30921341 15.35014797 17.66739913 17.69962022 20.0625 20.0625 C32.59376859 32.47932778 32.59376859 32.47932778 33.375 39.25 C32.49366216 48.06337845 26.58232479 54.47323749 21.33886719 61.25488281 C19.41401175 63.76379359 17.52988963 66.30244841 15.6418457 68.83911133 C6.72675801 80.8048149 -2.50957082 92.48562625 -12 104 C-13.50071175 105.83275076 -15.00070638 107.66608895 -16.5 109.5 C-25.5 120.5 -25.5 120.5 -27.76953125 123.2734375 C-29.20499935 125.02817784 -30.63993796 126.78335155 -32.07421875 128.5390625 C-34.38055255 131.36123066 -36.68927237 134.18142931 -39 137 C-39.52255371 137.63744141 -40.04510742 138.27488281 -40.58349609 138.93164062 C-47.05737201 146.82381497 -53.55439345 154.69222462 -60.16748047 162.46826172 C-62.98238581 165.78266968 -65.75463955 169.12782274 -68.5 172.5 C-74.04659704 179.30987893 -79.7387923 185.99493334 -85.43212891 192.68212891 C-95.69849143 204.47108195 -95.69849143 204.47108195 -105 217 C-105.66 217 -106.32 217 -107 217 C-107.24621094 217.56589844 -107.49242187 218.13179687 -107.74609375 218.71484375 C-109.21536224 221.39248258 -110.97752435 223.33043612 -113.0625 225.5625 C-117.26311169 230.12219624 -121.14536944 234.86218594 -124.95703125 239.75 C-126.9511006 241.94614521 -128.18625136 243.11552106 -131 244 C-136.12870461 243.5509889 -139.43057024 239.35061414 -143 236 C-143.91652344 235.14535156 -143.91652344 235.14535156 -144.8515625 234.2734375 C-146.28222243 232.8970206 -147.64782232 231.45359101 -149 230 C-149 229.34 -149 228.68 -149 228 C-149.86625 227.62875 -149.86625 227.62875 -150.75 227.25 C-153.32939979 225.81700012 -155.06121592 224.21575324 -157 222 C-157 221.34 -157 220.68 -157 220 C-157.66 220 -158.32 220 -159 220 C-159 219.34 -159 218.68 -159 218 C-159.66 218 -160.32 218 -161 218 C-162.65625 216.390625 -162.65625 216.390625 -164.5 214.25 C-165.1084375 213.55390625 -165.716875 212.8578125 -166.34375 212.140625 C-168.86174593 208.88623403 -170.07227434 207.2270576 -169.82421875 203.015625 C-168.94040375 199.78195115 -167.99307936 198.26068838 -165.8125 195.75 C-165.09191406 194.89277344 -164.37132812 194.03554688 -163.62890625 193.15234375 C-163.21656738 192.66362793 -162.80422852 192.17491211 -162.37939453 191.67138672 C-159.58512583 188.28562327 -156.93206544 184.78725991 -154.25 181.3125 C-149.23866701 174.84771888 -144.1717758 168.43176207 -139.05004883 162.05419922 C-135.94071219 158.18128539 -132.8656631 154.28509935 -129.828125 150.35546875 C-127.93146665 147.91169741 -126.01980039 145.48027578 -124.10522461 143.05053711 C-122.21169372 140.64571701 -120.32399269 138.23634501 -118.43603516 135.82714844 C-116.99804525 133.99751287 -115.55193863 132.17449739 -114.10546875 130.3515625 C-113.19498368 129.19296666 -112.28481478 128.03412227 -111.375 126.875 C-110.55773437 125.84117187 -109.74046875 124.80734375 -108.8984375 123.7421875 C-107.17638741 121.25478181 -106.69053874 119.82730012 -106 117 C-105.01 116.67 -104.02 116.34 -103 116 C-101.12020773 113.68158953 -99.36185455 111.359347 -97.625 108.9375 C-93.31789111 103.05275638 -88.88782537 97.31531618 -84.25 91.6875 C-79.96655096 86.47357566 -75.86593576 81.19074678 -71.9453125 75.6953125 C-65.92138497 67.34890689 -59.46839383 59.30663798 -53.09960938 51.22241211 C-49.69598317 46.89806444 -46.33032112 42.54587137 -42.98266602 38.17797852 C-40.5271695 34.9771406 -38.05864081 31.78697011 -35.578125 28.60546875 C-34.68275024 27.45667236 -34.68275024 27.45667236 -33.76928711 26.28466797 C-32.55311629 24.72632247 -31.33519314 23.16934287 -30.11547852 21.61376953 C-27.46988518 18.22900357 -24.85436405 14.8415123 -22.38671875 11.32421875 C-16.84642543 3.48743079 -10.42332811 -4.14494919 0 0 Z M-7 26 C-13.16132879 32.44289489 -18.17083928 40.27404385 -23.42260742 47.45947266 C-28.24418833 54.03523224 -33.21425423 60.48259445 -38.29345703 66.86132812 C-41.8697928 71.39241309 -45.04796528 76.03895318 -48 81 C-46.02532838 83.35997339 -44.03064825 85.68880166 -42 88 C-41.4121875 88.67933594 -40.824375 89.35867188 -40.21875 90.05859375 C-39.6309375 90.69925781 -39.043125 91.33992188 -38.4375 92 C-37.89996094 92.598125 -37.36242187 93.19625 -36.80859375 93.8125 C-35.03067042 95.19475362 -35.03067042 95.19475362 -32.640625 95.140625 C-28.59498097 93.39309829 -26.78858622 90.29665085 -24.3125 86.75 C-23.24423174 85.27290047 -22.17521175 83.79634434 -21.10546875 82.3203125 C-20.57872559 81.58458008 -20.05198242 80.84884766 -19.50927734 80.09082031 C-17.43833006 77.22191178 -15.29018702 74.42363843 -13.125 71.625 C-12.33222656 70.59761719 -11.53945313 69.57023437 -10.72265625 68.51171875 C-6.73560767 63.3638647 -2.73592729 58.22577461 1.26708984 53.09033203 C1.83766113 52.3579834 2.40823242 51.62563477 2.99609375 50.87109375 C3.75684204 49.89547485 3.75684204 49.89547485 4.53295898 48.90014648 C5.01708252 48.27309814 5.50120605 47.6460498 6 47 C6.56726807 46.31043213 7.13453613 45.62086426 7.71899414 44.91040039 C8.14172607 44.27996826 8.56445801 43.64953613 9 43 C8.06809525 38.45696434 5.30495181 36.08462169 2 33 C0.18037715 31.12155313 -1.63647802 29.24055833 -3.44921875 27.35546875 C-4.90769892 25.78063276 -4.90769892 25.78063276 -7 26 Z " fill="#020202" transform="translate(666,219)"/>
<path d="M0 0 C1.80439718 3.14098768 2.71944396 6.01181927 3.703125 9.4765625 C6.00634146 18.1435865 6.00634146 18.1435865 12.1640625 24.3671875 C16.31356299 26.53828837 20.46061206 28.2018772 24.9375 29.5625 C27.66486814 30.42656884 28.93977104 30.9468568 31.125 32.875 C32.29188234 35.7088571 32.02852763 37.13481589 31 40 C28.50440816 43.29954089 25.65990708 43.81683762 21.75 44.8125 C15.06100832 46.79166773 10.41317959 48.90466916 6.80078125 55.03515625 C4.54669201 59.78634064 3.108192 64.75055305 1.80859375 69.8359375 C0.90338974 72.2585608 0.05553048 73.44201846 -2 75 C-5 75 -5 75 -8 74 C-10.60411557 70.42256401 -11.66991502 66.94160829 -12.75 62.6875 C-14.60308879 56.48947955 -16.86908027 52.04412614 -22 48 C-24.58898917 46.6147092 -27.17653933 45.77833041 -30 45 C-37.23494671 42.80877062 -37.23494671 42.80877062 -40.1875 39.6875 C-41 37 -41 37 -40.00390625 33.98828125 C-37.46625101 30.20405853 -34.95862146 29.55151545 -30.75 28.5 C-22.23764465 26.00394132 -22.23764465 26.00394132 -16 20 C-13.70572928 15.17034093 -12.28493508 10.17268739 -11 5 C-10 2 -10 2 -8.25 0 C-4.97878105 -1.45387509 -3.33448325 -1.27703614 0 0 Z " fill="#080809" transform="translate(762,277)"/>
<path d="M0 0 C3.0625 0.3125 3.0625 0.3125 4.63671875 1.44140625 C6.5796153 3.99112528 7.12477623 6.46983432 7.9375 9.5625 C9.80149641 15.8386527 11.35511668 21.04338592 17.13671875 24.58203125 C21.71607899 26.78230111 26.01741002 27.88313064 31.0625 28.3125 C32.38471288 31.034703 33.08265824 32.88917699 32.9375 35.9375 C31.83850899 38.92047561 30.72068176 39.61181081 28.0625 41.3125 C26.30749258 41.92258681 24.53452162 42.48256445 22.75 43 C16.80127108 45.12567913 13.2128592 47.79071657 10.0625 53.3125 C8.87169667 56.67056538 7.90682853 59.99125745 7.08203125 63.45703125 C5.93594384 66.66695423 5.03591376 67.7149297 2.0625 69.3125 C-0.4375 69.0625 -0.4375 69.0625 -2.9375 67.3125 C-5.03252894 63.71334772 -6.39246656 59.79221799 -7.828125 55.89453125 C-10.06907054 50.22569867 -12.37012763 46.97301423 -17.9375 44.3125 C-21.05605134 43.17049528 -24.17784567 42.14627512 -27.36328125 41.20703125 C-29.9375 40.3125 -29.9375 40.3125 -31.9375 38.3125 C-32.49457051 33.0760372 -32.49457051 33.0760372 -30.8203125 30.78125 C-28.2403284 28.7686483 -25.57118627 27.86204134 -22.5 26.75 C-15.91486494 24.8426643 -15.91486494 24.8426643 -10.84375 20.6953125 C-9.25962128 16.53014646 -8.04157 12.25598211 -6.79296875 7.98046875 C-4.53382274 0.48232157 -4.53382274 0.48232157 0 0 Z " fill="#090909" transform="translate(602.9375,123.6875)"/>
<path d="M0 0 C2.5 0.9375 2.5 0.9375 4.125 2.8125 C5.39521941 5.6993623 6.12754394 8.32288777 6.875 11.375 C8.14147523 16.09262022 9.32141518 20.0872653 13.5 22.9375 C16.77398257 24.35192703 20.05068595 25.55864848 23.44140625 26.6640625 C26.65101944 28.00037655 28.34872634 29.22868353 30.5 31.9375 C30.5 34.5 30.5 34.5 29.5 36.9375 C26.57976203 39.52589275 23.67206208 40.75412179 20 42 C15.10546834 43.64278734 15.10546834 43.64278734 10.5 45.9375 C9.30161791 48.26604463 9.30161791 48.26604463 8.5 50.9375 C8.17 51.700625 7.84 52.46375 7.5 53.25 C6.63466246 55.57559465 6.16073326 57.64326082 5.6875 60.0625 C4.92817588 63.33438443 4.70901319 63.77825185 1.875 65.9375 C0.699375 66.4325 0.699375 66.4325 -0.5 66.9375 C-3 65.5625 -3 65.5625 -5.5 63.9375 C-5.5 63.2775 -5.5 62.6175 -5.5 61.9375 C-6.16 61.6075 -6.82 61.2775 -7.5 60.9375 C-7.9921875 59.08203125 -7.9921875 59.08203125 -8.375 56.75 C-9.28599607 52.25240522 -10.57983225 49.47709728 -13.5 45.9375 C-14.985 45.4425 -14.985 45.4425 -16.5 44.9375 C-17.10714844 44.463125 -17.71429687 43.98875 -18.33984375 43.5 C-21.57992922 41.15635771 -25.16729066 40.22902 -28.94140625 39 C-31.48446435 37.94395145 -32.8270984 37.10044349 -34.5 34.9375 C-34.5 34.2775 -34.5 33.6175 -34.5 32.9375 C-33.84 32.9375 -33.18 32.9375 -32.5 32.9375 C-32.32082031 32.33679688 -32.14164063 31.73609375 -31.95703125 31.1171875 C-29.50982198 27.45621492 -25.20328365 26.72334857 -21.17382812 25.40234375 C-16.16188611 23.60776115 -13.52745458 21.49763731 -10.5 16.9375 C-9.40558532 14.40660367 -8.61528893 11.84107089 -7.875 9.1875 C-5.22798742 -0.13069969 -5.22798742 -0.13069969 0 0 Z " fill="#0A0A0A" transform="translate(723.5,146.0625)"/>
<path d="M0 0 C0.66 0.66 1.32 1.32 2 2 C-0.39924399 7.59823598 -4.79915032 9.43773653 -10 12 C-10.66 11.34 -11.32 10.68 -12 10 C-9.0173094 8.47551369 -6.181798 7.06059933 -3 6 C-1.83333333 4.08333333 -1.83333333 4.08333333 -1 2 C-0.67 1.34 -0.34 0.68 0 0 Z " fill="#181717" transform="translate(594,140)"/>
<path d="M0 0 C2.64 0 5.28 0 8 0 C8 0.33 8 0.66 8 1 C5.36 1 2.72 1 0 1 C0 0.67 0 0.34 0 0 Z " fill="#30302E" transform="translate(485,664)"/>
<path d="M0 0 C1.98 0 3.96 0 6 0 C6 0.33 6 0.66 6 1 C4.02 1 2.04 1 0 1 C0 0.67 0 0.34 0 0 Z " fill="#302F2D" transform="translate(526,664)"/>
<path d="M0 0 C1.65 0 3.3 0 5 0 C5 0.33 5 0.66 5 1 C3.35 1 1.7 1 0 1 C0 0.67 0 0.34 0 0 Z " fill="#30312F" transform="translate(520,664)"/>
<path d="M0 0 C1.65 0 3.3 0 5 0 C5 0.33 5 0.66 5 1 C3.35 1 1.7 1 0 1 C0 0.67 0 0.34 0 0 Z " fill="#302F2C" transform="translate(502,664)"/>
<path d="M0 0 C1.65 0 3.3 0 5 0 C5 0.33 5 0.66 5 1 C3.35 1 1.7 1 0 1 C0 0.67 0 0.34 0 0 Z " fill="#2F2F2E" transform="translate(468,664)"/>
<path d="M0 0 C1.65 0 3.3 0 5 0 C5 0.33 5 0.66 5 1 C3.35 1 1.7 1 0 1 C0 0.67 0 0.34 0 0 Z " fill="#2F2E2E" transform="translate(445,664)"/>
<path d="M0 0 C0.33 0 0.66 0 1 0 C1 1.65 1 3.3 1 5 C0.67 5 0.34 5 0 5 C0 3.35 0 1.7 0 0 Z " fill="#302F2E" transform="translate(202,571)"/>
<path d="M0 0 C0.99 0.495 0.99 0.495 2 1 C2 1.66 2 2.32 2 3 C1.34 3 0.68 3 0 3 C0 2.01 0 1.02 0 0 Z " fill="#262627" transform="translate(336,370)"/>
<path d="M0 0 C0.66 0.33 1.32 0.66 2 1 C1.01 1 0.02 1 -1 1 C-0.67 0.67 -0.34 0.34 0 0 Z " fill="#2C2B2C" transform="translate(385,683)"/>
<path d="M0 0 C4 1 4 1 4 1 Z " fill="#312E2E" transform="translate(510,664)"/>
<path d="M0 0 C4 1 4 1 4 1 Z " fill="#30302E" transform="translate(494,664)"/>
<path d="M0 0 C4 1 4 1 4 1 Z " fill="#302E2E" transform="translate(462,664)"/>
<path d="M0 0 C4 1 4 1 4 1 Z " fill="#2F2D2E" transform="translate(454,664)"/>
<path d="M0 0 C4 1 4 1 4 1 Z " fill="#2F2E2D" transform="translate(422,664)"/>
<path d="M0 0 C0.99 0.495 0.99 0.495 2 1 C1.67 1.66 1.34 2.32 1 3 C0.67 2.01 0.34 1.02 0 0 Z " fill="#272727" transform="translate(456,538)"/>
<path d="M0 0 C3 1 3 1 3 1 Z " fill="#2E2E2E" transform="translate(398,672)"/>
<path d="M0 0 C0.33 0.66 0.66 1.32 1 2 C0.34 1.67 -0.32 1.34 -1 1 C-0.67 0.67 -0.34 0.34 0 0 Z " fill="#2E2F2F" transform="translate(210,611)"/>
<path d="M0 0 C0.33 0.66 0.66 1.32 1 2 C0.34 1.67 -0.32 1.34 -1 1 C-0.67 0.67 -0.34 0.34 0 0 Z " fill="#262725" transform="translate(429,500)"/>
<path d="M0 0 C0.66 0.66 1.32 1.32 2 2 C1.34 2 0.68 2 0 2 C0 1.34 0 0.68 0 0 Z " fill="#242323" transform="translate(468,461)"/>
<path d="M0 0 C0.33 0.66 0.66 1.32 1 2 C0.34 1.67 -0.32 1.34 -1 1 C-0.67 0.67 -0.34 0.34 0 0 Z " fill="#292929" transform="translate(504,407)"/>
<path d="M0 0 C0.66 0.66 1.32 1.32 2 2 C1.34 2 0.68 2 0 2 C0 1.34 0 0.68 0 0 Z " fill="#252423" transform="translate(420,395)"/>
<path d="M0 0 C3 1 3 1 3 1 Z " fill="#272526" transform="translate(384,349)"/>
<path d="M0 0 C2 1 2 1 2 1 Z " fill="#333232" transform="translate(304,749)"/>
<path d="M0 0 C2 1 2 1 2 1 Z " fill="#2F3131" transform="translate(269,679)"/>
<path d="M0 0 C2 1 2 1 2 1 Z " fill="#313130" transform="translate(267,678)"/>
<path d="M0 0 C2 1 2 1 2 1 Z " fill="#313031" transform="translate(499,664)"/>
<path d="M0 0 C2 1 2 1 2 1 Z " fill="#312E2C" transform="translate(432,664)"/>
<path d="M0 0 C2 1 2 1 2 1 Z " fill="#2E2F30" transform="translate(593,656)"/>
<path d="" fill="#302F30" transform="translate(0,0)"/>
<path d="" fill="#302E2F" transform="translate(0,0)"/>
<path d="M0 0 C2 1 2 1 2 1 Z " fill="#2D2D2B" transform="translate(542,603)"/>
<path d="M0 0 C2 1 2 1 2 1 Z " fill="#2A2A29" transform="translate(488,584)"/>
<path d="" fill="#2F3031" transform="translate(0,0)"/>
<path d="" fill="#2A2A2B" transform="translate(0,0)"/>
<path d="" fill="#302F30" transform="translate(0,0)"/>
<path d="" fill="#292828" transform="translate(0,0)"/>
<path d="" fill="#292828" transform="translate(0,0)"/>
<path d="" fill="#282727" transform="translate(0,0)"/>
<path d="M0 0 C2 1 2 1 2 1 Z " fill="#292827" transform="translate(515,526)"/>
<path d="" fill="#282627" transform="translate(0,0)"/>
<path d="" fill="#272627" transform="translate(0,0)"/>
<path d="" fill="#272827" transform="translate(0,0)"/>
<path d="" fill="#262727" transform="translate(0,0)"/>
<path d="" fill="#272625" transform="translate(0,0)"/>
<path d="" fill="#252524" transform="translate(0,0)"/>
<path d="" fill="#252526" transform="translate(0,0)"/>
<path d="" fill="#30302F" transform="translate(0,0)"/>
<path d="M0 0 C2 1 2 1 2 1 Z " fill="#282828" transform="translate(395,454)"/>
<path d="" fill="#252426" transform="translate(0,0)"/>
<path d="M0 0 C2 1 2 1 2 1 Z " fill="#292928" transform="translate(496,429)"/>
<path d="M0 0 C2 1 2 1 2 1 Z " fill="#282929" transform="translate(370,419)"/>
<path d="" fill="#292A2A" transform="translate(0,0)"/>
<path d="" fill="#262625" transform="translate(0,0)"/>
<path d="" fill="#282828" transform="translate(0,0)"/>
<path d="" fill="#2D2D2B" transform="translate(0,0)"/>
<path d="" fill="#242526" transform="translate(0,0)"/>
<path d="" fill="#252426" transform="translate(0,0)"/>
<path d="M0 0 C2 1 2 1 2 1 Z " fill="#2A2929" transform="translate(328,360)"/>
<path d="M0 0 C2 1 2 1 2 1 Z " fill="#2A2928" transform="translate(320,349)"/>
<path d="M0 0 C2 1 2 1 2 1 Z " fill="#302E2F" transform="translate(342,324)"/>
<path d="M0 0 C2 1 2 1 2 1 Z " fill="#302F2F" transform="translate(334,324)"/>
<path d="" fill="#303031" transform="translate(0,0)"/>
<path d="M0 0 C2 1 2 1 2 1 Z " fill="#292727" transform="translate(662,313)"/>
<path d="" fill="#3B3B3A" transform="translate(0,0)"/>
<path d="" fill="#333231" transform="translate(0,0)"/>
<path d="M0 0 C2 1 2 1 2 1 Z " fill="#2B2C2A" transform="translate(552,270)"/>
<path d="M0 0 C2 1 2 1 2 1 Z " fill="#313131" transform="translate(313,269)"/>
<path d="" fill="#2B2B2B" transform="translate(0,0)"/>
<path d="" fill="#323233" transform="translate(0,0)"/>
<path d="M0 0 C2 1 2 1 2 1 Z " fill="#323132" transform="translate(713,200)"/>
<path d="" fill="#303130" transform="translate(0,0)"/>
<path d="" fill="#313031" transform="translate(0,0)"/>
<path d="" fill="#3F3E3D" transform="translate(0,0)"/>
<path d="" fill="#4D4D4D" transform="translate(0,0)"/>
<path d="" fill="#343533" transform="translate(0,0)"/>
<path d="" fill="#2C292B" transform="translate(0,0)"/>
<path d="" fill="#2E2E2F" transform="translate(0,0)"/>
<path d="" fill="#2A2D2F" transform="translate(0,0)"/>
<path d="" fill="#282729" transform="translate(0,0)"/>
<path d="" fill="#2C272C" transform="translate(0,0)"/>
<path d="" fill="#2E2F2E" transform="translate(0,0)"/>
<path d="" fill="#2E2F2D" transform="translate(0,0)"/>
<path d="" fill="#2C2D2C" transform="translate(0,0)"/>
<path d="" fill="#323033" transform="translate(0,0)"/>
<path d="" fill="#2C2A2A" transform="translate(0,0)"/>
<path d="" fill="#2A292B" transform="translate(0,0)"/>
<path d="" fill="#30302F" transform="translate(0,0)"/>
<path d="" fill="#30302F" transform="translate(0,0)"/>
<path d="" fill="#302F2E" transform="translate(0,0)"/>
<path d="" fill="#2C2D2D" transform="translate(0,0)"/>
<path d="" fill="#2E2D30" transform="translate(0,0)"/>
<path d="" fill="#2F2C2F" transform="translate(0,0)"/>
<path d="" fill="#2D2D2E" transform="translate(0,0)"/>
<path d="" fill="#30302F" transform="translate(0,0)"/>
<path d="" fill="#2F3031" transform="translate(0,0)"/>
<path d="" fill="#2C2E30" transform="translate(0,0)"/>
<path d="" fill="#312E2E" transform="translate(0,0)"/>
<path d="" fill="#2E2E30" transform="translate(0,0)"/>
<path d="" fill="#312F2F" transform="translate(0,0)"/>
<path d="" fill="#302D2E" transform="translate(0,0)"/>
<path d="" fill="#2E2F2E" transform="translate(0,0)"/>
<path d="" fill="#2F2D2E" transform="translate(0,0)"/>
<path d="" fill="#2E2D2E" transform="translate(0,0)"/>
<path d="" fill="#313232" transform="translate(0,0)"/>
<path d="" fill="#343334" transform="translate(0,0)"/>
<path d="" fill="#2F2F31" transform="translate(0,0)"/>
<path d="" fill="#2D2B2E" transform="translate(0,0)"/>
<path d="" fill="#2C2E2E" transform="translate(0,0)"/>
<path d="" fill="#303131" transform="translate(0,0)"/>
<path d="" fill="#323231" transform="translate(0,0)"/>
<path d="" fill="#313230" transform="translate(0,0)"/>
<path d="" fill="#313232" transform="translate(0,0)"/>
<path d="" fill="#323033" transform="translate(0,0)"/>
<path d="" fill="#2F2F2F" transform="translate(0,0)"/>
<path d="" fill="#303030" transform="translate(0,0)"/>
<path d="" fill="#333432" transform="translate(0,0)"/>
<path d="" fill="#312E30" transform="translate(0,0)"/>
<path d="" fill="#2E2D2E" transform="translate(0,0)"/>
<path d="" fill="#313232" transform="translate(0,0)"/>
<path d="" fill="#302E2F" transform="translate(0,0)"/>
<path d="" fill="#333232" transform="translate(0,0)"/>
<path d="" fill="#353632" transform="translate(0,0)"/>
<path d="" fill="#2D2D2D" transform="translate(0,0)"/>
<path d="" fill="#313130" transform="translate(0,0)"/>
<path d="" fill="#2C2D2D" transform="translate(0,0)"/>
<path d="" fill="#2D2C2A" transform="translate(0,0)"/>
<path d="" fill="#2F302D" transform="translate(0,0)"/>
<path d="" fill="#2A2B2A" transform="translate(0,0)"/>
<path d="" fill="#2E2E2D" transform="translate(0,0)"/>
<path d="" fill="#2C292B" transform="translate(0,0)"/>
<path d="" fill="#313132" transform="translate(0,0)"/>
<path d="" fill="#323433" transform="translate(0,0)"/>
<path d="" fill="#313232" transform="translate(0,0)"/>
<path d="" fill="#303131" transform="translate(0,0)"/>
<path d="" fill="#2A2B29" transform="translate(0,0)"/>
<path d="" fill="#323130" transform="translate(0,0)"/>
<path d="" fill="#29292A" transform="translate(0,0)"/>
<path d="" fill="#2F3131" transform="translate(0,0)"/>
<path d="" fill="#303032" transform="translate(0,0)"/>
<path d="" fill="#262B2B" transform="translate(0,0)"/>
<path d="" fill="#2C2E2F" transform="translate(0,0)"/>
<path d="" fill="#292A29" transform="translate(0,0)"/>
<path d="" fill="#333233" transform="translate(0,0)"/>
<path d="" fill="#272628" transform="translate(0,0)"/>
<path d="" fill="#292928" transform="translate(0,0)"/>
<path d="" fill="#28282A" transform="translate(0,0)"/>
<path d="" fill="#282A27" transform="translate(0,0)"/>
<path d="" fill="#282929" transform="translate(0,0)"/>
<path d="" fill="#272728" transform="translate(0,0)"/>
<path d="" fill="#2A2929" transform="translate(0,0)"/>
<path d="" fill="#262425" transform="translate(0,0)"/>
<path d="" fill="#2B2B2C" transform="translate(0,0)"/>
<path d="" fill="#272728" transform="translate(0,0)"/>
<path d="" fill="#282826" transform="translate(0,0)"/>
<path d="" fill="#292828" transform="translate(0,0)"/>
<path d="" fill="#2D2B2A" transform="translate(0,0)"/>
<path d="" fill="#282828" transform="translate(0,0)"/>
<path d="" fill="#262727" transform="translate(0,0)"/>
<path d="" fill="#292929" transform="translate(0,0)"/>
<path d="" fill="#282929" transform="translate(0,0)"/>
<path d="" fill="#272927" transform="translate(0,0)"/>
<path d="" fill="#292929" transform="translate(0,0)"/>
<path d="" fill="#272928" transform="translate(0,0)"/>
<path d="" fill="#2A2A2A" transform="translate(0,0)"/>
<path d="" fill="#282825" transform="translate(0,0)"/>
<path d="" fill="#272827" transform="translate(0,0)"/>
<path d="" fill="#272729" transform="translate(0,0)"/>
<path d="" fill="#2A292A" transform="translate(0,0)"/>
<path d="" fill="#272728" transform="translate(0,0)"/>
<path d="" fill="#282626" transform="translate(0,0)"/>
<path d="" fill="#292929" transform="translate(0,0)"/>
<path d="" fill="#262624" transform="translate(0,0)"/>
<path d="" fill="#232525" transform="translate(0,0)"/>
<path d="" fill="#30312E" transform="translate(0,0)"/>
<path d="" fill="#272928" transform="translate(0,0)"/>
<path d="" fill="#272727" transform="translate(0,0)"/>
<path d="" fill="#292A2D" transform="translate(0,0)"/>
<path d="" fill="#272726" transform="translate(0,0)"/>
<path d="" fill="#2A2B2B" transform="translate(0,0)"/>
<path d="" fill="#2A2C28" transform="translate(0,0)"/>
<path d="" fill="#272828" transform="translate(0,0)"/>
<path d="" fill="#2E2D2D" transform="translate(0,0)"/>
<path d="" fill="#2B2C2C" transform="translate(0,0)"/>
<path d="" fill="#262726" transform="translate(0,0)"/>
<path d="" fill="#282827" transform="translate(0,0)"/>
<path d="" fill="#292829" transform="translate(0,0)"/>
<path d="" fill="#292A27" transform="translate(0,0)"/>
<path d="" fill="#282628" transform="translate(0,0)"/>
<path d="" fill="#272726" transform="translate(0,0)"/>
<path d="" fill="#262726" transform="translate(0,0)"/>
<path d="" fill="#282727" transform="translate(0,0)"/>
<path d="" fill="#282627" transform="translate(0,0)"/>
<path d="" fill="#313130" transform="translate(0,0)"/>
<path d="" fill="#2A2B2C" transform="translate(0,0)"/>
<path d="" fill="#292829" transform="translate(0,0)"/>
<path d="" fill="#272A28" transform="translate(0,0)"/>
<path d="" fill="#302F30" transform="translate(0,0)"/>
<path d="" fill="#2F2E2E" transform="translate(0,0)"/>
<path d="" fill="#252626" transform="translate(0,0)"/>
<path d="" fill="#272525" transform="translate(0,0)"/>
<path d="" fill="#272726" transform="translate(0,0)"/>
<path d="" fill="#252625" transform="translate(0,0)"/>
<path d="" fill="#2A2927" transform="translate(0,0)"/>
<path d="" fill="#262625" transform="translate(0,0)"/>
<path d="" fill="#2B2A29" transform="translate(0,0)"/>
<path d="" fill="#262627" transform="translate(0,0)"/>
<path d="" fill="#242324" transform="translate(0,0)"/>
<path d="" fill="#2F2E2C" transform="translate(0,0)"/>
<path d="" fill="#242522" transform="translate(0,0)"/>
<path d="" fill="#242425" transform="translate(0,0)"/>
<path d="" fill="#272829" transform="translate(0,0)"/>
<path d="" fill="#29292A" transform="translate(0,0)"/>
<path d="" fill="#252626" transform="translate(0,0)"/>
<path d="" fill="#2E3230" transform="translate(0,0)"/>
<path d="" fill="#282A28" transform="translate(0,0)"/>
<path d="" fill="#262428" transform="translate(0,0)"/>
<path d="" fill="#242526" transform="translate(0,0)"/>
<path d="" fill="#252424" transform="translate(0,0)"/>
<path d="" fill="#232323" transform="translate(0,0)"/>
<path d="" fill="#232223" transform="translate(0,0)"/>
<path d="" fill="#272829" transform="translate(0,0)"/>
<path d="" fill="#28282A" transform="translate(0,0)"/>
<path d="" fill="#2A2A2B" transform="translate(0,0)"/>
<path d="" fill="#252728" transform="translate(0,0)"/>
<path d="" fill="#292828" transform="translate(0,0)"/>
<path d="" fill="#32332F" transform="translate(0,0)"/>
<path d="" fill="#282927" transform="translate(0,0)"/>
<path d="" fill="#2A2A2A" transform="translate(0,0)"/>
<path d="" fill="#2F3030" transform="translate(0,0)"/>
<path d="" fill="#242423" transform="translate(0,0)"/>
<path d="" fill="#262628" transform="translate(0,0)"/>
<path d="" fill="#2E2F2E" transform="translate(0,0)"/>
<path d="" fill="#2D2D2F" transform="translate(0,0)"/>
<path d="" fill="#2B2B2B" transform="translate(0,0)"/>
<path d="" fill="#262525" transform="translate(0,0)"/>
<path d="" fill="#252526" transform="translate(0,0)"/>
<path d="" fill="#272727" transform="translate(0,0)"/>
<path d="" fill="#262726" transform="translate(0,0)"/>
<path d="" fill="#282726" transform="translate(0,0)"/>
<path d="" fill="#262726" transform="translate(0,0)"/>
<path d="" fill="#2E2E2E" transform="translate(0,0)"/>
<path d="" fill="#242425" transform="translate(0,0)"/>
<path d="" fill="#2F2F2E" transform="translate(0,0)"/>
<path d="" fill="#272626" transform="translate(0,0)"/>
<path d="" fill="#252626" transform="translate(0,0)"/>
<path d="" fill="#282729" transform="translate(0,0)"/>
<path d="" fill="#252626" transform="translate(0,0)"/>
<path d="" fill="#252626" transform="translate(0,0)"/>
<path d="" fill="#272626" transform="translate(0,0)"/>
<path d="" fill="#29272A" transform="translate(0,0)"/>
<path d="" fill="#2A2A2A" transform="translate(0,0)"/>
<path d="" fill="#252525" transform="translate(0,0)"/>
<path d="" fill="#282928" transform="translate(0,0)"/>
<path d="" fill="#2C2C2B" transform="translate(0,0)"/>
<path d="" fill="#282828" transform="translate(0,0)"/>
<path d="" fill="#252626" transform="translate(0,0)"/>
<path d="" fill="#282827" transform="translate(0,0)"/>
<path d="" fill="#252524" transform="translate(0,0)"/>
<path d="" fill="#252626" transform="translate(0,0)"/>
<path d="" fill="#282626" transform="translate(0,0)"/>
<path d="" fill="#27292A" transform="translate(0,0)"/>
<path d="" fill="#272628" transform="translate(0,0)"/>
<path d="" fill="#242324" transform="translate(0,0)"/>
<path d="" fill="#262727" transform="translate(0,0)"/>
<path d="" fill="#2A2A29" transform="translate(0,0)"/>
<path d="" fill="#292929" transform="translate(0,0)"/>
<path d="" fill="#29282A" transform="translate(0,0)"/>
<path d="" fill="#292928" transform="translate(0,0)"/>
<path d="" fill="#272826" transform="translate(0,0)"/>
<path d="" fill="#28292A" transform="translate(0,0)"/>
<path d="" fill="#242425" transform="translate(0,0)"/>
<path d="" fill="#272825" transform="translate(0,0)"/>
<path d="" fill="#2C2F2F" transform="translate(0,0)"/>
<path d="" fill="#2E2F30" transform="translate(0,0)"/>
<path d="" fill="#2D2C2B" transform="translate(0,0)"/>
<path d="" fill="#272827" transform="translate(0,0)"/>
<path d="" fill="#282A28" transform="translate(0,0)"/>
<path d="" fill="#252524" transform="translate(0,0)"/>
<path d="" fill="#2D2E2D" transform="translate(0,0)"/>
<path d="" fill="#242324" transform="translate(0,0)"/>
<path d="" fill="#272624" transform="translate(0,0)"/>
<path d="" fill="#262626" transform="translate(0,0)"/>
<path d="" fill="#313132" transform="translate(0,0)"/>
<path d="" fill="#282626" transform="translate(0,0)"/>
<path d="" fill="#242525" transform="translate(0,0)"/>
<path d="" fill="#242426" transform="translate(0,0)"/>
<path d="" fill="#282828" transform="translate(0,0)"/>
<path d="" fill="#262626" transform="translate(0,0)"/>
<path d="" fill="#262426" transform="translate(0,0)"/>
<path d="" fill="#242629" transform="translate(0,0)"/>
<path d="" fill="#242523" transform="translate(0,0)"/>
<path d="" fill="#2B2B2D" transform="translate(0,0)"/>
<path d="" fill="#272526" transform="translate(0,0)"/>
<path d="" fill="#303131" transform="translate(0,0)"/>
<path d="" fill="#262625" transform="translate(0,0)"/>
<path d="" fill="#262726" transform="translate(0,0)"/>
<path d="" fill="#262823" transform="translate(0,0)"/>
<path d="" fill="#312E2E" transform="translate(0,0)"/>
<path d="" fill="#2B2B2A" transform="translate(0,0)"/>
<path d="" fill="#31312F" transform="translate(0,0)"/>
<path d="" fill="#313130" transform="translate(0,0)"/>
<path d="" fill="#313030" transform="translate(0,0)"/>
<path d="" fill="#282627" transform="translate(0,0)"/>
<path d="" fill="#2E3030" transform="translate(0,0)"/>
<path d="" fill="#282827" transform="translate(0,0)"/>
<path d="" fill="#252326" transform="translate(0,0)"/>
<path d="" fill="#252625" transform="translate(0,0)"/>
<path d="" fill="#252424" transform="translate(0,0)"/>
<path d="" fill="#252527" transform="translate(0,0)"/>
<path d="" fill="#272726" transform="translate(0,0)"/>
<path d="" fill="#242527" transform="translate(0,0)"/>
<path d="" fill="#2B2829" transform="translate(0,0)"/>
<path d="" fill="#2F2E2E" transform="translate(0,0)"/>
<path d="" fill="#343334" transform="translate(0,0)"/>
<path d="" fill="#262626" transform="translate(0,0)"/>
<path d="" fill="#323031" transform="translate(0,0)"/>
<path d="" fill="#272525" transform="translate(0,0)"/>
<path d="" fill="#353431" transform="translate(0,0)"/>
<path d="" fill="#312F32" transform="translate(0,0)"/>
<path d="" fill="#343433" transform="translate(0,0)"/>
<path d="" fill="#343232" transform="translate(0,0)"/>
<path d="" fill="#272826" transform="translate(0,0)"/>
<path d="" fill="#2F2C2D" transform="translate(0,0)"/>
<path d="" fill="#2F2F2F" transform="translate(0,0)"/>
<path d="" fill="#2E2E2E" transform="translate(0,0)"/>
<path d="" fill="#313030" transform="translate(0,0)"/>
<path d="" fill="#333332" transform="translate(0,0)"/>
<path d="" fill="#313131" transform="translate(0,0)"/>
<path d="" fill="#323130" transform="translate(0,0)"/>
<path d="" fill="#303130" transform="translate(0,0)"/>
<path d="" fill="#313233" transform="translate(0,0)"/>
<path d="" fill="#302F31" transform="translate(0,0)"/>
<path d="" fill="#39393A" transform="translate(0,0)"/>
<path d="" fill="#242426" transform="translate(0,0)"/>
<path d="" fill="#323232" transform="translate(0,0)"/>
<path d="" fill="#3F413F" transform="translate(0,0)"/>
<path d="" fill="#323031" transform="translate(0,0)"/>
<path d="" fill="#262728" transform="translate(0,0)"/>
<path d="" fill="#2E2C2E" transform="translate(0,0)"/>
<path d="" fill="#2C2D2F" transform="translate(0,0)"/>
<path d="" fill="#313230" transform="translate(0,0)"/>
<path d="" fill="#262623" transform="translate(0,0)"/>
<path d="" fill="#343333" transform="translate(0,0)"/>
<path d="" fill="#292525" transform="translate(0,0)"/>
<path d="" fill="#262626" transform="translate(0,0)"/>
<path d="" fill="#272827" transform="translate(0,0)"/>
<path d="" fill="#282726" transform="translate(0,0)"/>
<path d="" fill="#262728" transform="translate(0,0)"/>
<path d="" fill="#2C2D2E" transform="translate(0,0)"/>
<path d="" fill="#333432" transform="translate(0,0)"/>
<path d="" fill="#282828" transform="translate(0,0)"/>
<path d="" fill="#282727" transform="translate(0,0)"/>
<path d="" fill="#3E403E" transform="translate(0,0)"/>
<path d="" fill="#282828" transform="translate(0,0)"/>
<path d="" fill="#343134" transform="translate(0,0)"/>
<path d="" fill="#302F2D" transform="translate(0,0)"/>
<path d="" fill="#2E2E2C" transform="translate(0,0)"/>
<path d="" fill="#313332" transform="translate(0,0)"/>
<path d="" fill="#333132" transform="translate(0,0)"/>
<path d="" fill="#323231" transform="translate(0,0)"/>
<path d="" fill="#323131" transform="translate(0,0)"/>
<path d="" fill="#312F30" transform="translate(0,0)"/>
<path d="" fill="#2D2E2C" transform="translate(0,0)"/>
<path d="" fill="#343132" transform="translate(0,0)"/>
<path d="" fill="#323131" transform="translate(0,0)"/>
<path d="" fill="#323231" transform="translate(0,0)"/>
<path d="" fill="#323233" transform="translate(0,0)"/>
<path d="" fill="#323130" transform="translate(0,0)"/>
<path d="" fill="#373333" transform="translate(0,0)"/>
<path d="" fill="#2A292A" transform="translate(0,0)"/>
<path d="" fill="#29292B" transform="translate(0,0)"/>
<path d="" fill="#29292A" transform="translate(0,0)"/>
<path d="" fill="#353234" transform="translate(0,0)"/>
<path d="" fill="#2B292A" transform="translate(0,0)"/>
<path d="" fill="#343534" transform="translate(0,0)"/>
<path d="" fill="#333434" transform="translate(0,0)"/>
<path d="" fill="#383838" transform="translate(0,0)"/>
<path d="" fill="#2F2D2F" transform="translate(0,0)"/>
<path d="" fill="#353434" transform="translate(0,0)"/>
<path d="" fill="#312F30" transform="translate(0,0)"/>
<path d="" fill="#363433" transform="translate(0,0)"/>
<path d="" fill="#2D2B2B" transform="translate(0,0)"/>
<path d="" fill="#343332" transform="translate(0,0)"/>
<path d="" fill="#363535" transform="translate(0,0)"/>
<path d="" fill="#3A3B39" transform="translate(0,0)"/>
<path d="" fill="#3A3A39" transform="translate(0,0)"/>
<path d="" fill="#3A3B3A" transform="translate(0,0)"/>
<path d="" fill="#3C3B3A" transform="translate(0,0)"/>
<path d="" fill="#3A3736" transform="translate(0,0)"/>
<path d="" fill="#2D2E2E" transform="translate(0,0)"/>
<path d="" fill="#353534" transform="translate(0,0)"/>
<path d="" fill="#353735" transform="translate(0,0)"/>
<path d="" fill="#3B3A39" transform="translate(0,0)"/>
<path d="" fill="#39393A" transform="translate(0,0)"/>
<path d="" fill="#3C3A3B" transform="translate(0,0)"/>
<path d="" fill="#373635" transform="translate(0,0)"/>
<path d="" fill="#343431" transform="translate(0,0)"/>
<path d="" fill="#32312E" transform="translate(0,0)"/>
<path d="" fill="#383434" transform="translate(0,0)"/>
<path d="" fill="#303131" transform="translate(0,0)"/>
<path d="" fill="#322E30" transform="translate(0,0)"/>
<path d="" fill="#333334" transform="translate(0,0)"/>
<path d="" fill="#323232" transform="translate(0,0)"/>
<path d="" fill="#373738" transform="translate(0,0)"/>
<path d="" fill="#393939" transform="translate(0,0)"/>
<path d="" fill="#373638" transform="translate(0,0)"/>
<path d="" fill="#38363A" transform="translate(0,0)"/>
<path d="" fill="#39393A" transform="translate(0,0)"/>
<path d="" fill="#363636" transform="translate(0,0)"/>
<path d="" fill="#343334" transform="translate(0,0)"/>
<path d="" fill="#313132" transform="translate(0,0)"/>
<path d="" fill="#353436" transform="translate(0,0)"/>
<path d="" fill="#333432" transform="translate(0,0)"/>
<path d="" fill="#333335" transform="translate(0,0)"/>
<path d="" fill="#343233" transform="translate(0,0)"/>
<path d="" fill="#424341" transform="translate(0,0)"/>
<path d="" fill="#3A3A3D" transform="translate(0,0)"/>
<path d="" fill="#313435" transform="translate(0,0)"/>
<path d="" fill="#343434" transform="translate(0,0)"/>
<path d="" fill="#363536" transform="translate(0,0)"/>
<path d="" fill="#383837" transform="translate(0,0)"/>
<path d="" fill="#353535" transform="translate(0,0)"/>
<path d="" fill="#3D3C3B" transform="translate(0,0)"/>
<path d="" fill="#3A3B3B" transform="translate(0,0)"/>
<path d="" fill="#3C3B3D" transform="translate(0,0)"/>
<path d="" fill="#3A3839" transform="translate(0,0)"/>
<path d="" fill="#454747" transform="translate(0,0)"/>
</svg>
